<svg xmlns="http://www.w3.org/2000/svg" xmlns:xlink="http://www.w3.org/1999/xlink" width="500" zoomAndPan="magnify" viewBox="0 0 375 374.999991" height="500" preserveAspectRatio="xMidYMid meet" version="1.2"><defs><clipPath id="a51bf8ef11"><path d="M 108 71.601562 L 267 71.601562 L 267 140 L 108 140 Z M 108 71.601562 "/></clipPath><clipPath id="94ce7b8e0a"><path d="M 8 286 L 367 286 L 367 303.351562 L 8 303.351562 Z M 8 286 "/></clipPath></defs><g id="b4a4108eca"><path style=" stroke:none;fill-rule:nonzero;fill:#4a3aff;fill-opacity:1;" d="M 100.808594 217.503906 L 187.558594 266.652344 L 273.855469 217.777344 C 274.125 216.421875 274.304688 214.980469 274.304688 213.628906 C 274.304688 190.722656 235.441406 172.238281 187.558594 172.238281 C 139.675781 172.238281 100.808594 190.722656 100.808594 213.628906 Z M 100.808594 217.503906 "/><g clip-rule="nonzero" clip-path="url(#a51bf8ef11)"><path style=" stroke:none;fill-rule:nonzero;fill:#4a3aff;fill-opacity:1;" d="M 108.382812 81.160156 L 146.257812 81.160156 L 146.257812 102.441406 L 228.949219 102.441406 L 228.949219 81.160156 L 247.792969 81.160156 L 247.792969 124.175781 C 246.710938 124.894531 245.992188 126.15625 245.992188 127.601562 L 245.992188 139.234375 L 254.46875 139.234375 L 254.46875 127.601562 C 254.46875 126.15625 253.746094 124.894531 252.664062 124.175781 L 252.664062 81.160156 L 266.910156 81.160156 L 266.910156 71.601562 L 108.382812 71.601562 Z M 108.382812 81.160156 "/></g><path style=" stroke:none;fill-rule:nonzero;fill:#4a3aff;fill-opacity:1;" d="M 146.257812 125.886719 C 146.257812 148.703125 164.742188 167.277344 187.648438 167.277344 C 210.460938 167.277344 229.039062 148.792969 229.039062 125.886719 L 229.039062 108.84375 L 146.347656 108.84375 L 146.347656 125.886719 Z M 146.257812 125.886719 "/><path style=" stroke:none;fill-rule:nonzero;fill:#4a3aff;fill-opacity:1;" d="M 10.722656 279.003906 C 10.722656 280.355469 11.804688 281.441406 13.160156 281.441406 L 361.957031 281.441406 C 363.308594 281.441406 364.390625 280.355469 364.390625 279.003906 C 364.390625 277.652344 363.308594 276.570312 361.957031 276.570312 L 256.179688 276.570312 L 362.226562 268.996094 C 363.578125 268.90625 364.570312 267.734375 364.480469 266.378906 C 364.390625 265.027344 363.21875 264.035156 361.867188 264.125 L 256.632812 271.699219 L 357.71875 257.183594 C 359.070312 257.003906 359.972656 255.738281 359.792969 254.386719 C 359.613281 253.035156 358.347656 252.132812 356.996094 252.3125 L 257.082031 266.652344 L 352.21875 246.089844 C 353.570312 245.820312 354.382812 244.46875 354.109375 243.207031 C 353.839844 241.851562 352.488281 241.042969 351.226562 241.3125 L 258.433594 261.332031 L 344.824219 236.53125 C 346.085938 236.171875 346.898438 234.820312 346.535156 233.464844 C 346.175781 232.203125 344.824219 231.390625 343.46875 231.753906 L 259.605469 255.828125 L 335.894531 228.417969 C 337.15625 227.964844 337.878906 226.523438 337.339844 225.261719 C 336.886719 223.996094 335.445312 223.277344 334.183594 223.816406 L 261.5 249.878906 L 325.617188 222.285156 C 326.878906 221.742188 327.417969 220.300781 326.878906 219.039062 C 326.335938 217.777344 324.894531 217.234375 323.632812 217.777344 L 187.558594 276.390625 L 51.484375 217.777344 C 50.222656 217.234375 48.777344 217.777344 48.238281 219.039062 C 47.695312 220.300781 48.238281 221.742188 49.5 222.285156 L 113.613281 249.878906 L 40.933594 223.816406 C 39.671875 223.367188 38.226562 223.996094 37.777344 225.261719 C 37.324219 226.523438 37.957031 227.964844 39.21875 228.417969 L 115.507812 255.828125 L 31.644531 231.753906 C 30.292969 231.390625 28.941406 232.113281 28.578125 233.464844 C 28.21875 234.730469 28.941406 236.171875 30.292969 236.53125 L 116.679688 261.332031 L 24.070312 241.222656 C 22.71875 240.949219 21.453125 241.761719 21.183594 243.113281 C 20.914062 244.46875 21.726562 245.730469 23.078125 246 L 118.121094 266.5625 L 18.207031 252.222656 C 16.855469 252.042969 15.59375 252.945312 15.414062 254.296875 C 15.234375 255.648438 16.132812 256.910156 17.488281 257.09375 L 118.574219 271.609375 L 13.339844 264.035156 C 11.988281 263.945312 10.8125 264.9375 10.722656 266.289062 C 10.632812 267.644531 11.625 268.816406 12.976562 268.90625 L 119.023438 276.480469 L 13.160156 276.480469 C 11.804688 276.570312 10.722656 277.652344 10.722656 279.003906 Z M 10.722656 279.003906 "/><g clip-rule="nonzero" clip-path="url(#94ce7b8e0a)"><path style=" stroke:none;fill-rule:nonzero;fill:#4a3aff;fill-opacity:1;" d="M 362.046875 286.308594 L 13.070312 286.308594 C 10.363281 286.308594 8.109375 288.472656 8.109375 291.269531 C 8.109375 294.0625 10.273438 296.226562 13.070312 296.226562 L 171.957031 296.226562 C 175.746094 300.554688 181.246094 303.351562 187.46875 303.351562 C 193.6875 303.351562 199.28125 300.554688 202.976562 296.226562 L 361.867188 296.226562 C 364.570312 296.226562 366.824219 294.0625 366.824219 291.269531 C 366.824219 288.472656 364.839844 286.308594 362.046875 286.308594 Z M 362.046875 286.308594 "/></g></g></svg>